<?xml version="1.0" encoding="utf-8"?>
<!-- Generator: Adobe Illustrator 15.1.0, SVG Export Plug-In . SVG Version: 6.00 Build 0)  -->
<!DOCTYPE svg PUBLIC "-//W3C//DTD SVG 1.1//EN" "http://www.w3.org/Graphics/SVG/1.1/DTD/svg11.dtd">
<svg version="1.1" id="Layer_1" xmlns="http://www.w3.org/2000/svg" xmlns:xlink="http://www.w3.org/1999/xlink" x="0px" y="0px"
	 width="25px" height="30px" viewBox="0 0 25 30" enable-background="new 0 0 25 30" xml:space="preserve">
<path fill="#FFFFFF" d="M18.617,0.076c0.374-0.155,0.804-0.069,1.09,0.217c0.908,0.908,2.097,2.878,3.059,5.918
	C23.737,9.28,24.5,13.508,24.5,19c0,0.553-0.447,1-1,1H20v9c0,0.553-0.447,1-1,1s-1-0.447-1-1V1C18,0.596,18.244,0.231,18.617,0.076
	z M20,18h2.491c-0.086-4.816-0.786-8.513-1.632-11.186C20.58,5.935,20.289,5.171,20,4.519V18z"/>
<path fill="#FFFFFF" d="M10.5,0c-0.552,0-1,0.448-1,1v5.5c0,0.557-0.192,1.315-0.701,1.917C8.44,8.841,7.882,9.237,7,9.41V1
	c0-0.552-0.448-1-1-1S5,0.448,5,1v8.41C4.118,9.237,3.56,8.841,3.201,8.417C2.692,7.815,2.5,7.057,2.5,6.5V1c0-0.552-0.448-1-1-1
	s-1,0.448-1,1v5.5c0,0.943,0.308,2.185,1.174,3.208C2.413,10.581,3.511,11.225,5,11.427V29c0,0.553,0.448,1,1,1s1-0.447,1-1V11.427
	c1.489-0.202,2.587-0.846,3.326-1.718C11.192,8.685,11.5,7.443,11.5,6.5V1C11.5,0.448,11.052,0,10.5,0z"/>
</svg>
