<?xml version="1.0" encoding="utf-8"?>
<!-- Generator: Adobe Illustrator 15.1.0, SVG Export Plug-In . SVG Version: 6.00 Build 0)  -->
<!DOCTYPE svg PUBLIC "-//W3C//DTD SVG 1.1//EN" "http://www.w3.org/Graphics/SVG/1.1/DTD/svg11.dtd">
<svg version="1.1" id="Layer_1" xmlns="http://www.w3.org/2000/svg" xmlns:xlink="http://www.w3.org/1999/xlink" x="0px" y="0px"
	 width="58px" height="62px" viewBox="0 0 58 62" enable-background="new 0 0 58 62" xml:space="preserve">
<path fill="#FFFFFF" d="M54.016,12.924h-7.069c0.471-0.674,0.841-1.421,1.083-2.229c0.6-2.003,0.378-4.117-0.623-5.953
	c-1-1.836-2.66-3.177-4.675-3.772c-2.013-0.596-4.142-0.376-5.989,0.618c-3.665,1.972-6.265,6.167-7.72,9.094
	c-1.456-2.927-4.055-7.121-7.719-9.094c-3.817-2.05-8.601-0.635-10.665,3.154c-1.459,2.679-1.17,5.834,0.467,8.182H4.031
	c-1.754,0-3.181,1.418-3.181,3.161v9.468c0,1.743,1.427,3.16,3.181,3.16h0.843v26.35c0,3.357,2.748,6.086,6.125,6.086h36.046
	c3.377,0,6.123-2.729,6.123-6.086v-26.35h0.848c1.754,0,3.18-1.417,3.18-3.16v-9.469C57.195,14.342,55.769,12.924,54.016,12.924z
	 M37.902,3.718c1.275-0.686,2.743-0.837,4.134-0.426c1.39,0.411,2.536,1.335,3.226,2.604c0.691,1.268,0.845,2.727,0.431,4.109
	c-0.364,1.214-1.146,2.222-2.193,2.92H30.662C31.81,10.375,34.323,5.644,37.902,3.718z M12.782,5.895
	c1.424-2.615,4.726-3.593,7.361-2.177c3.579,1.926,6.093,6.657,7.24,9.206H14.547C12.252,11.392,11.44,8.359,12.782,5.895z
	 M27.804,28.713V42.51H7.312V28.713H27.804z M7.312,55.063V44.932h20.492v13.795H10.999C8.966,58.727,7.312,57.084,7.312,55.063z
	 M47.045,58.727H30.241V44.932H50.73v10.131C50.73,57.084,49.077,58.727,47.045,58.727z M50.73,42.51H30.241V28.713H50.73V42.51z
	 M54.758,25.553c0,0.407-0.334,0.738-0.742,0.738h-2.064c0,0-0.001,0-0.002,0s-0.002,0-0.002,0H29.025c-0.001,0-0.001,0-0.002,0
	s-0.001,0-0.002,0H6.095c-0.001,0-0.001,0-0.002,0s-0.001,0-0.002,0h-2.06c-0.41,0-0.744-0.332-0.744-0.738v-9.469
	c0-0.4,0.34-0.739,0.744-0.739h49.985c0.401,0,0.742,0.338,0.742,0.739V25.553z"/>
</svg>
