<?xml version="1.0" encoding="utf-8"?>
<!-- Generator: Adobe Illustrator 15.1.0, SVG Export Plug-In . SVG Version: 6.00 Build 0)  -->
<!DOCTYPE svg PUBLIC "-//W3C//DTD SVG 1.1//EN" "http://www.w3.org/Graphics/SVG/1.1/DTD/svg11.dtd">
<svg version="1.1" id="Layer_1" xmlns="http://www.w3.org/2000/svg" xmlns:xlink="http://www.w3.org/1999/xlink" x="0px" y="0px"
	 width="29px" height="31px" viewBox="0 0 29 31" enable-background="new 0 0 29 31" xml:space="preserve">
<path fill="#FFFFFF" d="M20.776,18.473c-1.706,0-3.089,1.479-3.089,3.302s1.383,3.302,3.089,3.302s3.088-1.479,3.088-3.302
	S22.481,18.473,20.776,18.473z M20.776,23.486c-0.884,0-1.601-0.766-1.601-1.711c0-0.946,0.717-1.712,1.601-1.712
	s1.601,0.766,1.601,1.712C22.377,22.721,21.66,23.486,20.776,23.486z"/>
<path fill="#FFFFFF" d="M11.607-0.01c-1.761,0-3.188,1.525-3.188,3.407s1.427,3.407,3.188,3.407s3.187-1.524,3.187-3.407
	C14.793,1.514,13.367-0.01,11.607-0.01z M11.606,5.466c-1.069,0-1.936-0.926-1.936-2.069c0-1.143,0.867-2.069,1.936-2.069
	c1.069,0,1.936,0.927,1.936,2.069C13.542,4.54,12.676,5.466,11.606,5.466z"/>
<path fill="#FFFFFF" d="M8.227,17.61c-1.294,0-2.341,1.12-2.341,2.503s1.047,2.503,2.341,2.503c1.293,0,2.341-1.12,2.341-2.503
	S9.521,17.61,8.227,17.61z"/>
<path fill="#FFFFFF" d="M18.5,9.763c0,0,3.04-0.838,6.178,1.494c0.908,0.76,1.766,1.336,1.152,2.123
	c-0.344,0.341-0.637,0.657-1.716-0.524c-1.054-0.76-2.72-1.898-5.614-1.441c-1.127,0.236-1.961,0.55-3.556,2.149
	c-1.593,1.599-3.972,2.725-6.497,2.489c-2.525-0.235-3.849-1.258-5.247-2.542c-0.294-0.419-0.294-0.865-0.123-1.127
	c0.171-0.262,0.833-0.524,1.201-0.131c0.368,0.393,2.108,1.965,3.824,2.07c1.717,0.104,3.433,0.209,5.737-1.966
	C16.146,10.182,17.299,10.025,18.5,9.763z"/>
<path fill="#FFFFFF" d="M28.646,26.815V8.157c0-0.578-0.374-0.65-0.524-0.655h-0.505c-0.493,0-0.536,0.557-0.538,0.739
	c0,0.018,0,0.033,0,0.051c0,0.001,0,0.01,0,0.01c0.002,3.609,0.01,18.253-0.002,18.541c-0.012,0.327-0.073,1.166-0.82,1.887
	c-0.809,0.695-1.618,0.604-1.618,0.604s-20.177,0-20.655-0.027c-0.379-0.065-1.042-0.209-1.606-1.009
	c-0.563-0.8-0.453-1.848-0.453-1.848V8.315c0-0.838-0.674-0.813-0.674-0.813H0.942c-0.536,0-0.585,0.588-0.588,0.776
	c0,3.462,0,17.368,0,18.538c0,1.336,0.454,2.397,1.548,3.336c1.094,0.939,2.375,0.857,2.375,0.857s19.724,0,20.582-0.003
	s1.985-0.417,2.916-1.556C28.703,28.313,28.646,26.815,28.646,26.815z"/>
</svg>
