<?xml version="1.0" encoding="utf-8"?>
<!-- Generator: Adobe Illustrator 15.1.0, SVG Export Plug-In . SVG Version: 6.00 Build 0)  -->
<!DOCTYPE svg PUBLIC "-//W3C//DTD SVG 1.1//EN" "http://www.w3.org/Graphics/SVG/1.1/DTD/svg11.dtd">
<svg version="1.1" id="Layer_1" xmlns="http://www.w3.org/2000/svg" xmlns:xlink="http://www.w3.org/1999/xlink" x="0px" y="0px"
	 width="25px" height="30px" viewBox="0 0 25 30" enable-background="new 0 0 25 30" xml:space="preserve">
<g>
	<circle fill="#FFFFFF" cx="18.204" cy="9.33" r="1.085"/>
	<circle fill="#FFFFFF" cx="7.331" cy="9.33" r="1.085"/>
	<circle fill="#FFFFFF" cx="7.331" cy="22.351" r="1.085"/>
	<circle fill="#FFFFFF" cx="12.768" cy="24.521" r="1.085"/>
	<circle fill="#FFFFFF" cx="4.069" cy="15.774" r="1.085"/>
	<circle fill="#FFFFFF" cx="21.467" cy="15.774" r="1.085"/>
	<circle fill="#FFFFFF" cx="18.204" cy="22.351" r="1.085"/>
	<path fill="#FFFFFF" d="M20.584,26.785c-0.426-0.438-0.361-1.149,0.098-1.552C23.324,22.92,25,19.469,25,15.614
		c0-6.712-5.087-12.184-11.5-12.576V1.5h6.25c0.414,0,0.75-0.336,0.75-0.75S20.164,0,19.75,0H13.5H12H5.75C5.336,0,5,0.336,5,0.75
		S5.336,1.5,5.75,1.5H12v1.54C5.604,3.451,0.536,8.915,0.536,15.614c0,3.814,1.642,7.233,4.236,9.546
		c0.453,0.404,0.513,1.111,0.09,1.545l-1.434,1.473c-0.258,0.266-0.258,0.687,0,0.951c0.268,0.275,0.709,0.275,0.977,0l1.879-1.93
		c0.319-0.328,0.817-0.393,1.227-0.191c1.593,0.783,3.375,1.221,5.257,1.221c1.842,0,3.588-0.419,5.154-1.17
		c0.408-0.196,0.9-0.129,1.217,0.195l1.826,1.875c0.268,0.275,0.709,0.275,0.977,0c0.258-0.265,0.258-0.686,0-0.951L20.584,26.785z
		 M12.768,26.827c-6.005,0-10.873-5.021-10.873-11.213S6.763,4.401,12.768,4.401c6.006,0,10.873,5.021,10.873,11.213
		S18.773,26.827,12.768,26.827z"/>
	<path fill="#FFFFFF" d="M12.768,16.926c0.443,0,0.803-0.359,0.803-0.803v-0.282v-0.543V11.5V7.941c0-0.432-0.35-0.781-0.781-0.781
		c-0.432,0-0.781,0.35-0.781,0.781V11.5v3.798v0.543v0.325C12.008,16.586,12.348,16.926,12.768,16.926z"/>
</g>
</svg>
