<?xml version="1.0" encoding="utf-8"?>
<!-- Generator: Adobe Illustrator 15.1.0, SVG Export Plug-In . SVG Version: 6.00 Build 0)  -->
<!DOCTYPE svg PUBLIC "-//W3C//DTD SVG 1.1//EN" "http://www.w3.org/Graphics/SVG/1.1/DTD/svg11.dtd">
<svg version="1.1" id="Layer_1" xmlns="http://www.w3.org/2000/svg" xmlns:xlink="http://www.w3.org/1999/xlink" x="0px" y="0px"
	 width="13px" height="20px" viewBox="0 0 13 20" enable-background="new 0 0 13 20" xml:space="preserve">
<g>
	<path fill="#666666" d="M7.834,19.36H4.167c-0.304,0-0.55-0.246-0.55-0.55v-6.642h-2.2c-0.304,0-0.55-0.246-0.55-0.55V8.024
		c0-0.304,0.246-0.55,0.55-0.55h2.2V5.328c0-1.33,0.549-2.632,1.508-3.571C6.079,0.82,7.4,0.283,8.75,0.283h2.75
		c0.304,0,0.55,0.246,0.55,0.55v3.596c0,0.304-0.246,0.55-0.55,0.55H8.75c-0.099,0-0.194,0.039-0.264,0.106
		C8.42,5.149,8.384,5.236,8.384,5.328v2.146H11.5c0.17,0,0.33,0.078,0.435,0.212c0.104,0.134,0.141,0.309,0.099,0.473l-0.916,3.595
		c-0.063,0.244-0.282,0.414-0.533,0.414h-2.2v6.642C8.384,19.114,8.138,19.36,7.834,19.36z M4.716,18.261h2.568v-6.642
		c0-0.304,0.246-0.55,0.55-0.55h2.322l0.636-2.496H7.834c-0.304,0-0.55-0.246-0.55-0.55V5.328c0-0.39,0.153-0.755,0.433-1.028
		c0.276-0.271,0.644-0.42,1.033-0.42h2.2V1.383h-2.2c-1.063,0-2.104,0.423-2.855,1.159c-0.76,0.745-1.178,1.734-1.178,2.786v2.696
		c0,0.304-0.246,0.55-0.55,0.55h-2.2v2.496h2.2c0.304,0,0.55,0.246,0.55,0.55V18.261z"/>
</g>
</svg>
