<?xml version="1.0" encoding="utf-8"?>
<!-- Generator: Adobe Illustrator 15.1.0, SVG Export Plug-In . SVG Version: 6.00 Build 0)  -->
<!DOCTYPE svg PUBLIC "-//W3C//DTD SVG 1.1//EN" "http://www.w3.org/Graphics/SVG/1.1/DTD/svg11.dtd">
<svg version="1.1" id="Layer_1" xmlns="http://www.w3.org/2000/svg" xmlns:xlink="http://www.w3.org/1999/xlink" x="0px" y="0px"
	 width="36px" height="50px" viewBox="0 0 36 50" enable-background="new 0 0 36 50" xml:space="preserve">
<g>
	<g>
		<path d="M28.203,0h-0.195c-0.33,0.187-0.593,0.474-0.75,0.819c-0.29,0.558-0.513,1.148-0.664,1.758
			c-0.033,0.184-0.125,0.351-0.263,0.476s-0.313,0.201-0.499,0.215c-0.566,0.098-1.104,0.324-1.569,0.662
			c-0.466,0.337-0.849,0.778-1.12,1.286c-0.371,0.661-0.689,1.35-0.951,2.062c-0.73,1.897-1.291,3.855-1.98,5.768
			c-0.324,0.871-0.339,0.871-1.316,0.871c-1.167,0-1.085-0.18-1.1,1.108c0,0.407,0.123,0.613,0.555,0.593
			c0.134,0,0.334-0.067,0.386,0.108c0.052,0.176-0.124,0.253-0.226,0.356c-0.61,0.621-1.382,1.056-2.228,1.258
			c-0.977,0.263-1.975,0.469-2.926,0.789c-2.443,0.819-4.701,1.964-6.459,3.902c-1.028,1.204-1.852,2.569-2.438,4.042
			c-1.888,4.453-2.803,9.145-3.513,13.881c-0.334,2.223-0.571,4.454-0.751,6.701C0.103,47.758,0,48.877,0,50h17.141
			c0.028-0.227-0.013-0.457-0.118-0.66c-0.165-0.411-0.433-0.772-0.778-1.05s-0.755-0.46-1.192-0.532
			c-0.36-0.082-0.401-0.191-0.18-0.475c0.361-0.482,0.637-1.022,0.818-1.598c0.838-2.479,1.162-5.066,1.568-7.629
			c0.229-1.957,0.83-3.852,1.77-5.582c0.732-1.274,1.709-2.391,2.874-3.283c0.427-0.325,0.442-0.325,0.515,0.227
			c0.051,0.365,0.062,0.742,0.087,1.113c0.155,2.436,0.124,4.879-0.093,7.309c-0.193,1.885-0.22,3.781-0.076,5.67
			c0.204,2.193,0.594,4.364,1.167,6.49h6.84c-0.089-0.559-0.345-1.076-0.735-1.484c-0.389-0.408-0.893-0.689-1.445-0.805
			c-0.645-0.102-1.303-0.067-1.934,0.104c-0.309,0.072-0.438,0-0.463-0.335c-0.213-2.729-0.039-5.475,0.514-8.155
			c0.687-3.094,1.212-6.222,1.574-9.371c0.135-1.271,0.535-2.5,1.173-3.607c0.612-1.093,1.147-2.227,1.749-3.325
			c0.238-0.399,0.383-0.848,0.42-1.312c0.037-0.464-0.033-0.931-0.205-1.363c-0.139-0.366-0.271-0.737-0.441-1.087
			c-0.515-1.005-1.029-2-1.502-3.016c-0.252-0.516-0.195-0.577,0.365-0.593c0.838,0,0.838,0,0.854-0.845c0-0.113,0-0.227,0-0.34
			c0-0.355-0.134-0.551-0.514-0.516c-0.258,0-0.515,0-0.782,0c-0.354,0-0.458-0.149-0.37-0.515c0.174-0.595,0.515-1.127,0.982-1.532
			c0.469-0.405,1.043-0.666,1.656-0.751c1.139-0.099,2.287-0.024,3.404,0.222c0.129,0.041,0.268,0.029,0.389-0.033
			c0.12-0.062,0.211-0.168,0.254-0.297c0.205-0.515,0.432-1.031,0.664-1.546c0.052-0.091,0.075-0.197,0.066-0.302
			c-0.01-0.105-0.051-0.205-0.119-0.286c-1.645-2.093-3.43-4.046-5.862-5.299c-0.117-0.051-0.22-0.13-0.3-0.231
			c-0.078-0.101-0.131-0.22-0.152-0.347c-0.139-0.737-0.357-1.456-0.653-2.144C28.789,0.52,28.535,0.208,28.203,0L28.203,0z"/>
	</g>
</g>
</svg>
