<?xml version="1.0" encoding="utf-8"?>
<!-- Generator: Adobe Illustrator 15.1.0, SVG Export Plug-In . SVG Version: 6.00 Build 0)  -->
<!DOCTYPE svg PUBLIC "-//W3C//DTD SVG 1.1//EN" "http://www.w3.org/Graphics/SVG/1.1/DTD/svg11.dtd">
<svg version="1.1" id="Layer_1" xmlns="http://www.w3.org/2000/svg" xmlns:xlink="http://www.w3.org/1999/xlink" x="0px" y="0px"
	 width="67px" height="28px" viewBox="0 0 67 28" enable-background="new 0 0 67 28" xml:space="preserve">
<g>
	<g>
		<path d="M61.55,2.9c0.577-0.918,1.345-1.703,2.25-2.3c0.5-0.35,0.8-0.35,1.101,0.3c0.399,0.95,0.75,1.95,0.449,3
			c-0.055,0.178-0.064,0.367-0.029,0.55s0.113,0.354,0.229,0.5c0.3,0.4,0.55,0.8,0.8,1.15c0.34,0.432,0.561,0.945,0.641,1.49
			c0.078,0.544,0.014,1.099-0.19,1.61c-0.184,0.496-0.218,1.034-0.1,1.55c0.1,0.495,0.1,1.005,0,1.5
			c-0.04,0.371-0.19,0.721-0.431,1.006s-0.561,0.492-0.92,0.594c-0.639,0.122-1.21,0.479-1.6,1
			c-0.047,0.077-0.113,0.141-0.192,0.184c-0.079,0.045-0.167,0.067-0.258,0.066c-0.6,0.101-2.1-1.25-2.1-1.85v-0.3
			c0.05-1.8-0.05-1.95-1.7-2.7c-0.346-0.122-0.654-0.328-0.9-0.6c-0.3-0.4-0.699-0.35-1.149-0.2C57,9.6,56.75,9.9,56.8,10.4
			c0.151,1.21,0.201,2.431,0.15,3.65c0.003,0.139,0.037,0.276,0.1,0.4c1.55,2.25,2.15,4.899,2.9,7.45c0.6,1.949,1.7,3,3.7,3.149
			c0.32,0.026,0.637,0.075,0.949,0.15c0.411,0.065,0.793,0.253,1.096,0.539c0.303,0.285,0.514,0.654,0.604,1.061
			c0.351,1.05,0.15,1.3-0.899,1.3h-3.25c-0.422,0.021-0.834-0.121-1.15-0.399c-0.506-0.427-1.081-0.766-1.7-1
			c-0.685-0.253-1.276-0.706-1.7-1.3c-0.586-0.818-1.256-1.572-2-2.25C54.2,21.7,52.7,20.3,51.4,18.8
			c-0.99-1.022-1.561-2.378-1.601-3.8c0-0.45-0.1-0.65-0.6-0.45c-0.149,0.095-0.323,0.147-0.5,0.15c-1.4,0-2.101,0.85-2.601,2.1
			c-0.449,1.05-1.05,2.05-1.6,3.101c-0.313,0.656-0.482,1.372-0.5,2.1c0,1.2,0.3,1.6,1.4,2c0.699,0.25,1.35,0.5,1.699,1.2
			c0.4,0.8,0.301,1-0.55,1.05H43.15c-0.196,0.02-0.394-0.023-0.564-0.122c-0.17-0.099-0.305-0.249-0.386-0.428l-0.9-1.5
			c-0.265-0.392-0.435-0.84-0.495-1.309c-0.062-0.469-0.012-0.945,0.146-1.392c0.216-0.868,0.233-1.774,0.05-2.65
			c-0.126-0.609-0.115-1.24,0.031-1.846c0.147-0.604,0.427-1.17,0.818-1.654c0.301-0.35,0.301-0.5-0.199-0.6
			c-2.045-0.434-4.027-1.123-5.9-2.05c-0.014,0-0.025-0.005-0.035-0.015c-0.01-0.01-0.015-0.022-0.015-0.036
			c-1.601-0.6-1.9-0.5-2.35,1.15c-0.4,1.4-0.8,2.8-1.1,4.25C31.9,19.65,32.3,21.15,32.8,22.65c0.2,0.6,0.8,0.55,1.25,0.699
			c1,0.301,1.851,0.7,2.25,1.75C36.65,25.9,36.6,26,35.75,26s-1.7-0.05-2.6,0c-0.759,0.014-1.5-0.233-2.1-0.7
			c-2.4-1.6-3.1-4.05-3.3-6.7c-0.1-1.649-1-2.949-2.05-4.2c-0.2-0.25-0.4-0.35-0.7-0.15c-1.073,0.592-2.194,1.094-3.35,1.5
			c-2.413,0.852-4.53,2.379-6.1,4.4c-0.586,0.737-0.966,1.617-1.1,2.55c-0.15,0.899,0.1,1.3,1,1.55c0.9,0.25,1.35,0.75,1.45,1.7
			c0.05,0.399-0.1,0.6-0.5,0.6h-4.05c-0.133-0.009-0.261-0.05-0.374-0.12s-0.208-0.166-0.276-0.279
			c-0.628-0.777-0.964-1.751-0.95-2.75c-0.026-1.729,0.125-3.453,0.45-5.15c0.066-0.508,0.256-0.992,0.552-1.41
			c0.296-0.418,0.69-0.758,1.147-0.99c2.95-1.399,4.5-4.05,5.9-6.8c0.3-0.55,0.05-0.65-0.45-0.6c-1.399,0.194-2.725,0.745-3.85,1.6
			c-1.473,1.075-2.86,2.262-4.15,3.55c-1.375,1.396-3.199,2.264-5.15,2.45C1.55,16.25-0.15,14.2,0,10.9
			c0.034-1.125,0.458-2.204,1.2-3.05c0.258-0.334,0.61-0.584,1.01-0.718C2.611,6.998,3.043,6.987,3.45,7.1C4.2,7.3,4.4,7.7,4.1,8.45
			C3.95,8.75,3.75,9,3.6,9.3c-0.216,0.307-0.384,0.644-0.5,1c-0.55,1.5,0.2,2.55,1.75,2.7c1.65,0.15,3-0.55,4.25-1.55
			c1.506-1.206,2.85-2.601,4-4.15c0.859-1.131,1.942-2.074,3.18-2.771c1.239-0.697,2.606-1.132,4.02-1.279
			c1.15-0.15,2.15-0.65,3.25-0.95c2.058-0.627,4.2-0.931,6.35-0.9c0.996,0.042,1.988-0.146,2.9-0.55c2.45-1,5-1,7.55-0.5
			c2,0.4,4,0.9,5.95,1.4c1.161,0.216,2.354,0.182,3.5-0.1c2.194-0.556,4.438-0.891,6.7-1c1.48-0.072,2.957,0.22,4.3,0.85
			C61.8,1.95,61.8,1.95,61.55,2.9z"/>
	</g>
</g>
</svg>
