<svg width="20" height="20" viewBox="0 0.313 20 19.969" fill="none" xmlns="http://www.w3.org/2000/svg">
<g fill="currentColor">
	<path d="M17.9,9.753H9.4v1.204h8.5L15.8,13.064l0.9,0.902l3.1-3.11c0.098-0.13,0.15-0.289,0.15-0.452
			c0-0.163-0.053-0.321-0.15-0.451l-3.1-3.111l-0.9,0.903L17.9,9.753z"/>
	<path d="M8.1,19.787v-6.221c-0.012-0.156-0.079-0.303-0.188-0.414c-0.11-0.109-0.256-0.177-0.412-0.188H3.1
			c0.005,0.317,0.133,0.621,0.357,0.846c0.224,0.225,0.526,0.353,0.843,0.358h2.5v5.018H3.1C2.863,19.2,2.626,19.168,2.402,19.09
			s-0.431-0.2-0.607-0.359c-0.177-0.158-0.32-0.351-0.422-0.565S1.211,17.717,1.2,17.479V3.431C1.192,2.967,1.365,2.518,1.683,2.18
			C2,1.843,2.438,1.643,2.9,1.625h3.9v5.017H4.4C4.083,6.647,3.781,6.776,3.557,7C3.333,7.225,3.205,7.528,3.2,7.846h4.4
			c0.155-0.012,0.301-0.079,0.411-0.189C8.122,7.546,8.188,7.4,8.2,7.244V0.922C8.152,0.766,8.061,0.626,7.937,0.52
			C7.813,0.413,7.662,0.344,7.5,0.32H3.1c-0.394-0.013-0.787,0.051-1.156,0.19C1.575,0.65,1.237,0.86,0.949,1.131
			c-0.288,0.27-0.52,0.595-0.683,0.955C0.104,2.446,0.013,2.835,0,3.23v13.947c-0.029,0.399,0.025,0.801,0.158,1.178
			S0.5,19.078,0.772,19.37s0.602,0.524,0.968,0.683s0.761,0.238,1.16,0.236h4.6c0.074,0.016,0.363-0.059,0.42-0.106
			s0.104-0.108,0.135-0.177C8.086,19.938,8.102,19.862,8.1,19.787z"/>
</g>
</svg>
